<svg xmlns="http://www.w3.org/2000/svg" width="26" height="26" viewBox="0 0 26 26" fill="none">
  <rect width="26" height="26" fill="#023A51" fill-opacity="0.08"/>
  <path fill-rule="evenodd" clip-rule="evenodd" d="M18.2727 7.36364H17.5909V6.68182C17.5909 6.30682 17.2841 6 16.9091 6C16.5341 6 16.2273 6.30682 16.2273 6.68182V7.36364H9.40909V6.68182C9.40909 6.30682 9.10227 6 8.72727 6C8.35227 6 8.04545 6.30682 8.04545 6.68182V7.36364H7.36364C6.61364 7.36364 6 7.97727 6 8.72727V19.6364C6 20.3864 6.61364 21 7.36364 21H18.2727C19.0227 21 19.6364 20.3864 19.6364 19.6364V8.72727C19.6364 7.97727 19.0227 7.36364 18.2727 7.36364ZM17.5906 19.6364H8.04512C7.67012 19.6364 7.3633 19.3296 7.3633 18.9546V10.7728H18.2724V18.9546C18.2724 19.3296 17.9656 19.6364 17.5906 19.6364Z" fill="#023A51"/>
</svg>