<svg xmlns="http://www.w3.org/2000/svg" width="26" height="26" viewBox="0 0 26 26" fill="none">
  <rect width="26" height="26" fill="#023A51" fill-opacity="0.08"/>
  <path d="M12.65 12.15C12.1859 12.15 11.7408 11.9656 11.4126 11.6374C11.0844 11.3092 10.9 10.8641 10.9 10.4C10.9 9.93587 11.0844 9.49075 11.4126 9.16256C11.7408 8.83437 12.1859 8.65 12.65 8.65C13.1141 8.65 13.5592 8.83437 13.8874 9.16256C14.2156 9.49075 14.4 9.93587 14.4 10.4C14.4 10.6298 14.3547 10.8574 14.2668 11.0697C14.1788 11.282 14.0499 11.4749 13.8874 11.6374C13.7249 11.7999 13.532 11.9288 13.3197 12.0168C13.1074 12.1047 12.8798 12.15 12.65 12.15ZM12.65 5.5C11.3504 5.5 10.1041 6.01625 9.18518 6.93518C8.26625 7.8541 7.75 9.10044 7.75 10.4C7.75 14.075 12.65 19.5 12.65 19.5C12.65 19.5 17.55 14.075 17.55 10.4C17.55 9.10044 17.0338 7.8541 16.1148 6.93518C15.1959 6.01625 13.9496 5.5 12.65 5.5Z" fill="#023A51"/>
</svg>