<svg xmlns="http://www.w3.org/2000/svg" width="158" height="34" viewBox="0 0 158 34" fill="none">
  <path d="M0.919922 30.4465C6.48967 30.4465 11.0048 25.9313 11.0048 20.3617C11.0048 14.7919 6.48967 10.2767 0.919922 10.2767V17.3361C2.59083 17.3361 3.94537 18.6907 3.94537 20.3617C3.94537 22.0325 2.59083 23.3871 0.919922 23.3871V30.4465Z" fill="#59667D"/>
  <path d="M34.5362 13.6385C32.8129 13.0925 30.9777 12.798 29.0736 12.798C19.0945 12.798 11.0049 20.8877 11.0049 30.8667C11.0049 31.8683 11.0864 32.8509 11.2431 33.8082H22.4698C22.069 32.9097 21.8462 31.9142 21.8462 30.8667C21.8462 26.8751 25.082 23.6392 29.0736 23.6392C31.2552 23.6392 33.211 24.6058 34.5362 26.1341V13.6385Z" fill="#59667D"/>
  <path d="M2.69336 0.191895C3.52946 7.75547 9.94192 13.6384 17.7284 13.6384C25.5147 13.6384 31.9272 7.75547 32.7633 0.191895H21.9451C21.2772 1.86617 19.6409 3.04927 17.7284 3.04927C15.8158 3.04927 14.1796 1.86617 13.5116 0.191895H2.69336Z" fill="#59667D"/>
  <path d="M46.2354 7.02285H51.8666C53.3895 7.02285 54.5583 7.14238 55.3729 7.38145C56.1963 7.62051 56.8117 7.96582 57.2189 8.41738C57.6351 8.86895 57.914 9.4179 58.0557 10.0643C58.2062 10.7018 58.2814 11.6934 58.2814 13.0393V14.9119C58.2814 16.2843 58.1398 17.2848 57.8564 17.9135C57.5731 18.5421 57.0507 19.0247 56.2893 19.3611C55.5367 19.6976 54.5494 19.8658 53.3275 19.8658H51.8268V28.5252H46.2354V7.02285ZM51.8268 10.7018V16.1736C51.9861 16.1825 52.1234 16.1869 52.2385 16.1869C52.752 16.1869 53.1062 16.063 53.301 15.815C53.5046 15.5583 53.6064 15.0314 53.6064 14.2346V12.4682C53.6064 11.7333 53.4913 11.2551 53.2611 11.0338C53.0309 10.8124 52.5528 10.7018 51.8268 10.7018Z" fill="#59667D"/>
  <path d="M68.8533 7.02285L72.0541 28.5252H66.3299L66.051 24.6604H64.0455L63.7135 28.5252H57.9229L60.765 7.02285H68.8533ZM65.8916 20.8486C65.6083 18.4137 65.3249 15.4077 65.0416 11.8307C64.4749 15.939 64.1208 18.945 63.9791 20.8486H65.8916Z" fill="#59667D"/>
  <path d="M85.4947 7.02285V28.5252H80.5939L77.6854 18.7502V28.5252H73.0104V7.02285H77.6854L80.8197 16.7049V7.02285H85.4947Z" fill="#59667D"/>
  <path d="M97.408 7.02285L100.609 28.5252H94.8846L94.6057 24.6604H92.6002L92.2682 28.5252H86.4775L89.3197 7.02285H97.408ZM94.4463 20.8486C94.163 18.4137 93.8796 15.4077 93.5963 11.8307C93.0296 15.939 92.6755 18.945 92.5338 20.8486H94.4463Z" fill="#59667D"/>
  <path d="M101.565 7.02285H105.749C108.449 7.02285 110.273 7.14681 111.221 7.39473C112.177 7.64264 112.903 8.04993 113.399 8.6166C113.894 9.18327 114.204 9.81634 114.328 10.5158C114.452 11.2064 114.514 12.57 114.514 14.6064V22.1369C114.514 24.0671 114.421 25.3598 114.235 26.015C114.058 26.6614 113.744 27.1705 113.292 27.5424C112.841 27.9054 112.283 28.1622 111.619 28.3127C110.955 28.4544 109.954 28.5252 108.617 28.5252H101.565V7.02285ZM107.156 10.7018V24.8463C107.962 24.8463 108.458 24.6869 108.644 24.3682C108.83 24.0406 108.923 23.1596 108.923 21.7252V13.3713C108.923 12.3973 108.892 11.7731 108.83 11.4986C108.768 11.2242 108.626 11.0249 108.405 10.901C108.184 10.7682 107.767 10.7018 107.156 10.7018Z" fill="#59667D"/>
  <path d="M129.376 19.6135C129.376 21.7739 129.323 23.3057 129.217 24.2088C129.119 25.1031 128.8 25.9221 128.26 26.6658C127.729 27.4096 127.007 27.9807 126.096 28.3791C125.184 28.7775 124.121 28.9768 122.908 28.9768C121.757 28.9768 120.721 28.7908 119.8 28.4189C118.888 28.0382 118.153 27.4716 117.596 26.7189C117.038 25.9663 116.706 25.1473 116.599 24.2619C116.493 23.3765 116.44 21.827 116.44 19.6135V15.9346C116.44 13.7742 116.489 12.2468 116.586 11.3525C116.692 10.4494 117.011 9.62598 117.542 8.88223C118.082 8.13848 118.809 7.56738 119.721 7.16895C120.632 6.77051 121.695 6.57129 122.908 6.57129C124.059 6.57129 125.091 6.76165 126.003 7.14238C126.923 7.51426 127.663 8.0765 128.221 8.8291C128.778 9.58171 129.11 10.4007 129.217 11.2861C129.323 12.1715 129.376 13.721 129.376 15.9346V19.6135ZM123.785 12.5479C123.785 11.5473 123.727 10.9098 123.612 10.6354C123.506 10.352 123.28 10.2104 122.935 10.2104C122.642 10.2104 122.417 10.3255 122.257 10.5557C122.107 10.777 122.031 11.4411 122.031 12.5479V22.5885C122.031 23.8369 122.08 24.6072 122.178 24.8994C122.284 25.1916 122.523 25.3377 122.895 25.3377C123.275 25.3377 123.519 25.1695 123.625 24.833C123.731 24.4966 123.785 23.6952 123.785 22.4291V12.5479Z" fill="#59667D"/>
  <path d="M142.803 7.02285L140.851 16.5322L143.799 28.5252H138.62C138 26.3825 137.433 23.7749 136.92 20.7025C136.778 22.0572 136.583 23.496 136.335 25.0189L135.804 28.5252H130.359L132.378 16.5322L130.359 7.02285H135.764C135.862 7.61608 136.056 8.60332 136.349 9.98457C136.579 11.0382 136.769 12.0033 136.92 12.8799L138.115 7.02285H142.803Z" fill="#59667D"/>
  <path d="M157.081 7.02285V28.5252H152.18L149.271 18.7502V28.5252H144.596V7.02285H149.271L152.406 16.7049V7.02285H157.081Z" fill="#59667D"/>
</svg>