<svg xmlns="http://www.w3.org/2000/svg" width="160" height="44" viewBox="0 0 160 44" fill="none">
  <path fill-rule="evenodd" clip-rule="evenodd" d="M9.95586 3.95765C8.38213 5.05805 6.95906 6.35908 5.72371 7.82364C10.7719 7.35496 17.1855 8.12025 24.6317 11.8434C32.5831 15.819 38.986 15.9534 43.4421 15.0939C43.0378 13.8697 42.5287 12.6931 41.9258 11.5746C36.8247 12.1126 30.2852 11.4005 22.664 7.58998C17.8244 5.1702 13.5584 4.17341 9.95586 3.95765ZM38.946 7.33331C34.9177 2.8325 29.0636 0 22.5478 0C20.6344 0 18.7778 0.244318 17.0079 0.703428C19.405 1.35749 21.9515 2.31439 24.6317 3.65449C30.2115 6.44438 35.0289 7.34268 38.946 7.33331ZM44.3948 19.3909C39.0114 20.4539 31.5775 20.2356 22.664 15.7788C14.3308 11.6122 7.69833 11.6647 3.22514 12.6588C2.99425 12.71 2.7688 12.7639 2.54879 12.82C1.96313 14.0937 1.49565 15.4331 1.16022 16.8239C1.51848 16.7282 1.88868 16.6373 2.27063 16.5523C7.69738 15.3464 15.3649 15.3988 24.6317 20.0322C32.9649 24.1988 39.5974 24.1463 44.0707 23.1522C44.2239 23.1182 44.3749 23.083 44.5234 23.0467C44.5397 22.6999 44.5478 22.3509 44.5478 22C44.5478 21.1172 44.4959 20.2466 44.3948 19.3909ZM43.8051 27.6895C38.474 28.6216 31.2565 28.2638 22.664 23.9677C14.3308 19.8011 7.69833 19.8536 3.22514 20.8476C2.23223 21.0682 1.33902 21.3369 0.551075 21.6206C0.548926 21.7468 0.547852 21.8733 0.547852 22C0.547852 34.1503 10.3976 44 22.5478 44C32.7306 44 41.2977 37.082 43.8051 27.6895Z" fill="#59667D"/>
  <path d="M67.6573 32.9935C66.4077 32.9935 65.2461 32.7647 64.1725 32.3071C63.1165 31.8495 62.2013 31.2159 61.4269 30.4063C60.6701 29.5791 60.1157 28.6199 59.7637 27.5287L62.7469 26.2351C63.2221 27.3615 63.9085 28.2503 64.8061 28.9015C65.7037 29.5351 66.7157 29.8519 67.8421 29.8519C68.4757 29.8519 69.0213 29.7551 69.4789 29.5615C69.9541 29.3503 70.3149 29.0687 70.5613 28.7167C70.8253 28.3647 70.9573 27.9423 70.9573 27.4495C70.9573 26.8687 70.7813 26.3935 70.4293 26.0239C70.0949 25.6367 69.5845 25.3375 68.8981 25.1263L65.1229 23.9119C63.5917 23.4367 62.4389 22.7239 61.6645 21.7735C60.8901 20.8231 60.5029 19.7055 60.5029 18.4207C60.5029 17.2943 60.7757 16.2999 61.3213 15.4375C61.8845 14.5751 62.6589 13.9063 63.6445 13.4311C64.6477 12.9383 65.7917 12.6919 67.0765 12.6919C68.2557 12.6919 69.3381 12.9031 70.3237 13.3255C71.3093 13.7303 72.1541 14.3023 72.8581 15.0415C73.5797 15.7631 74.1165 16.6167 74.4685 17.6023L71.5117 18.9223C71.1245 17.9367 70.5437 17.1799 69.7693 16.6519C68.9949 16.1063 68.0973 15.8335 67.0765 15.8335C66.4781 15.8335 65.9501 15.9391 65.4925 16.1503C65.0349 16.3439 64.6741 16.6255 64.4101 16.9951C64.1637 17.3471 64.0405 17.7695 64.0405 18.2623C64.0405 18.8079 64.2165 19.2919 64.5685 19.7143C64.9205 20.1191 65.4573 20.4359 66.1789 20.6647L69.7957 21.7999C71.3621 22.3103 72.5325 23.0143 73.3069 23.9119C74.0989 24.8095 74.4949 25.9183 74.4949 27.2383C74.4949 28.3647 74.2045 29.3591 73.6237 30.2215C73.0429 31.0839 72.2421 31.7615 71.2213 32.2543C70.2005 32.7471 69.0125 32.9935 67.6573 32.9935Z" fill="#59667D"/>
  <path d="M77.4375 32.6767V12.6919H80.8959V21.1399L80.4207 20.6383C80.7551 19.7759 81.3007 19.1247 82.0575 18.6847C82.8319 18.2271 83.7295 17.9983 84.7503 17.9983C85.8063 17.9983 86.7391 18.2271 87.5487 18.6847C88.3759 19.1423 89.0183 19.7847 89.4759 20.6119C89.9335 21.4215 90.1623 22.3631 90.1623 23.4367V32.6767H86.7039V24.2551C86.7039 23.6215 86.5807 23.0759 86.3343 22.6183C86.0879 22.1607 85.7447 21.8087 85.3047 21.5623C84.8823 21.2983 84.3807 21.1663 83.7999 21.1663C83.2367 21.1663 82.7351 21.2983 82.2951 21.5623C81.8551 21.8087 81.5119 22.1607 81.2655 22.6183C81.0191 23.0759 80.8959 23.6215 80.8959 24.2551V32.6767H77.4375Z" fill="#59667D"/>
  <path d="M97.4427 32.9935C96.4395 32.9935 95.5683 32.8263 94.8291 32.4919C94.0899 32.1575 93.5179 31.6823 93.1131 31.0663C92.7083 30.4327 92.5059 29.7023 92.5059 28.8751C92.5059 28.0831 92.6819 27.3791 93.0339 26.7631C93.3859 26.1295 93.9315 25.6015 94.6707 25.1791C95.4099 24.7567 96.3427 24.4575 97.4691 24.2815L102.168 23.5159V26.1559L98.1291 26.8423C97.4427 26.9655 96.9323 27.1855 96.5979 27.5023C96.2635 27.8191 96.0963 28.2327 96.0963 28.7431C96.0963 29.2359 96.2811 29.6319 96.6507 29.9311C97.0379 30.2127 97.5131 30.3535 98.0763 30.3535C98.7979 30.3535 99.4315 30.2039 99.9771 29.9047C100.54 29.5879 100.971 29.1567 101.271 28.6111C101.587 28.0655 101.746 27.4671 101.746 26.8159V23.1199C101.746 22.5039 101.499 21.9935 101.007 21.5887C100.531 21.1663 99.8979 20.9551 99.1059 20.9551C98.3667 20.9551 97.7067 21.1575 97.1259 21.5623C96.5627 21.9495 96.1491 22.4687 95.8851 23.1199L93.0603 21.7471C93.3419 20.9903 93.7819 20.3391 94.3803 19.7935C94.9963 19.2303 95.7179 18.7903 96.5451 18.4735C97.3723 18.1567 98.2699 17.9983 99.2379 17.9983C100.417 17.9983 101.455 18.2183 102.353 18.6583C103.251 19.0807 103.946 19.6791 104.439 20.4535C104.949 21.2103 105.204 22.0991 105.204 23.1199V32.6767H101.931V30.2215L102.67 30.1687C102.3 30.7847 101.86 31.3039 101.35 31.7263C100.839 32.1311 100.259 32.4479 99.6075 32.6767C98.9563 32.8879 98.2347 32.9935 97.4427 32.9935Z" fill="#59667D"/>
  <path d="M108.401 32.6767V18.3151H111.648V21.1399L111.384 20.6383C111.718 19.7759 112.264 19.1247 113.021 18.6847C113.795 18.2271 114.693 17.9983 115.714 17.9983C116.77 17.9983 117.702 18.2271 118.512 18.6847C119.339 19.1423 119.982 19.7847 120.439 20.6119C120.897 21.4215 121.126 22.3631 121.126 23.4367V32.6767H117.667V24.2551C117.667 23.6215 117.544 23.0759 117.298 22.6183C117.051 22.1607 116.708 21.8087 116.268 21.5623C115.846 21.2983 115.344 21.1663 114.763 21.1663C114.2 21.1663 113.698 21.2983 113.258 21.5623C112.818 21.8087 112.475 22.1607 112.229 22.6183C111.982 23.0759 111.859 23.6215 111.859 24.2551V32.6767H108.401Z" fill="#59667D"/>
  <path d="M131.02 38.4847C129.946 38.4847 128.952 38.3087 128.036 37.9567C127.121 37.6047 126.329 37.1119 125.66 36.4783C125.009 35.8623 124.534 35.1319 124.235 34.2871L127.456 33.0727C127.667 33.7415 128.08 34.2783 128.696 34.6831C129.33 35.1055 130.104 35.3167 131.02 35.3167C131.724 35.3167 132.34 35.1847 132.868 34.9207C133.413 34.6567 133.836 34.2695 134.135 33.7591C134.434 33.2663 134.584 32.6679 134.584 31.9639V28.6903L135.244 29.4823C134.751 30.3447 134.091 30.9959 133.264 31.4359C132.436 31.8759 131.495 32.0959 130.439 32.0959C129.101 32.0959 127.904 31.7879 126.848 31.1719C125.792 30.5559 124.965 29.7111 124.367 28.6375C123.768 27.5639 123.469 26.3583 123.469 25.0207C123.469 23.6655 123.768 22.4599 124.367 21.4039C124.965 20.3479 125.784 19.5207 126.822 18.9223C127.86 18.3063 129.04 17.9983 130.36 17.9983C131.433 17.9983 132.375 18.2271 133.184 18.6847C134.012 19.1247 134.698 19.7671 135.244 20.6119L134.768 21.4831V18.3151H138.042V31.9639C138.042 33.2135 137.734 34.3311 137.118 35.3167C136.52 36.3023 135.692 37.0767 134.636 37.6399C133.598 38.2031 132.392 38.4847 131.02 38.4847ZM130.861 28.9015C131.6 28.9015 132.243 28.7431 132.788 28.4263C133.352 28.0919 133.792 27.6343 134.108 27.0535C134.425 26.4727 134.584 25.8039 134.584 25.0471C134.584 24.3079 134.416 23.6479 134.082 23.0671C133.765 22.4687 133.325 22.0023 132.762 21.6679C132.216 21.3335 131.583 21.1663 130.861 21.1663C130.14 21.1663 129.488 21.3335 128.908 21.6679C128.327 22.0023 127.869 22.4687 127.535 23.0671C127.218 23.6479 127.06 24.3079 127.06 25.0471C127.06 25.7863 127.218 26.4463 127.535 27.0271C127.869 27.6079 128.318 28.0655 128.881 28.3999C129.462 28.7343 130.122 28.9015 130.861 28.9015Z" fill="#59667D"/>
  <path d="M139.978 32.6767L144.994 25.4695L139.952 18.3151H144.017L147.951 24.1231H146.129L150.063 18.3151H154.102L149.086 25.4695L154.076 32.6767H150.037L146.156 26.8951H147.925L144.044 32.6767H139.978Z" fill="#59667D"/>
  <path d="M155.993 32.6767V18.3151H159.451V32.6767H155.993ZM155.993 16.7047V13.0087H159.451V16.7047H155.993Z" fill="#59667D"/>
</svg>