<svg xmlns="http://www.w3.org/2000/svg" width="122" height="38" viewBox="0 0 122 38" fill="none">
  <path d="M49.5547 26.2787L50.8734 23.1349C52.2985 24.2265 54.1915 24.7941 56.0632 24.7941C57.4458 24.7941 58.3178 24.2483 58.3178 23.4187C58.2966 21.1046 50.0439 22.9166 49.9801 17.1094C49.9588 14.1621 52.5112 11.8916 56.127 11.8916C58.2753 11.8916 60.4235 12.4374 61.955 13.6818L60.7213 16.8911C59.3175 15.9741 57.5734 15.3192 55.9143 15.3192C54.787 15.3192 54.0426 15.865 54.0426 16.5636C54.0639 18.8341 62.3804 17.5897 62.4654 23.1349C62.4654 26.1477 59.9769 28.2654 56.4035 28.2654C53.7874 28.2654 51.3839 27.6323 49.5547 26.2787ZM100.155 21.9997C99.4961 23.1786 98.2624 23.9864 96.8374 23.9864C94.7317 23.9864 93.0301 22.2398 93.0301 20.0785C93.0301 17.9171 94.7317 16.1706 96.8374 16.1706C98.2624 16.1706 99.4961 16.9784 100.155 18.1573L103.793 16.0833C102.431 13.5945 99.8151 11.8916 96.8374 11.8916C92.4345 11.8916 88.8612 15.5593 88.8612 20.0785C88.8612 24.5977 92.4345 28.2654 96.8374 28.2654C99.8364 28.2654 102.431 26.5843 103.793 24.0737L100.155 21.9997ZM64.2946 5.10193H68.8464V27.9597H64.2946V5.10193ZM105.579 5.10193V27.9597H110.131V21.1046L115.533 27.9597H121.361L114.491 19.8165L120.851 12.2191H115.278L110.131 18.5284V5.10193H105.579ZM82.3739 22.0433C81.7146 23.1568 80.3533 23.9864 78.8219 23.9864C76.7162 23.9864 75.0146 22.2398 75.0146 20.0785C75.0146 17.9171 76.7162 16.1706 78.8219 16.1706C80.3533 16.1706 81.7146 17.0439 82.3739 18.1791V22.0433ZM82.3739 12.2191V14.0748C81.6295 12.7867 79.779 11.8916 77.8435 11.8916C73.8447 11.8916 70.6968 15.5157 70.6968 20.0567C70.6968 24.5977 73.8447 28.2654 77.8435 28.2654C79.779 28.2654 81.6295 27.3703 82.3739 26.0822V27.9379H86.9257V12.2191H82.3739Z" fill="#59667D"/>
  <path d="M8.45706 23.8981C8.45706 26.0522 6.7161 27.7931 4.56203 27.7931C2.40796 27.7931 0.666992 26.0522 0.666992 23.8981C0.666992 21.744 2.40796 20.0031 4.56203 20.0031H8.45706V23.8981ZM10.4046 23.8981C10.4046 21.744 12.1455 20.0031 14.2996 20.0031C16.4537 20.0031 18.1947 21.744 18.1947 23.8981V33.6357C18.1947 35.7898 16.4537 37.5307 14.2996 37.5307C12.1455 37.5307 10.4046 35.7898 10.4046 33.6357V23.8981Z" fill="#59667D"/>
  <path d="M14.2998 8.25931C12.1458 8.25931 10.4048 6.51835 10.4048 4.36427C10.4048 2.2102 12.1458 0.469238 14.2998 0.469238C16.4539 0.469238 18.1949 2.2102 18.1949 4.36427V8.25931H14.2998ZM14.2998 10.2363C16.4539 10.2363 18.1949 11.9773 18.1949 14.1314C18.1949 16.2854 16.4539 18.0264 14.2998 18.0264H4.53273C2.37866 18.0264 0.637695 16.2854 0.637695 14.1314C0.637695 11.9773 2.37866 10.2363 4.53273 10.2363H14.2998Z" fill="#59667D"/>
  <path d="M29.9095 14.1314C29.9095 11.9773 31.6504 10.2363 33.8045 10.2363C35.9586 10.2363 37.6995 11.9773 37.6995 14.1314C37.6995 16.2854 35.9586 18.0264 33.8045 18.0264H29.9095V14.1314ZM27.9619 14.1314C27.9619 16.2854 26.221 18.0264 24.0669 18.0264C21.9128 18.0264 20.1719 16.2854 20.1719 14.1314V4.36427C20.1719 2.2102 21.9128 0.469238 24.0669 0.469238C26.221 0.469238 27.9619 2.2102 27.9619 4.36427V14.1314Z" fill="#59667D"/>
  <path d="M24.0669 29.7406C26.221 29.7406 27.9619 31.4816 27.9619 33.6357C27.9619 35.7898 26.221 37.5307 24.0669 37.5307C21.9128 37.5307 20.1719 35.7898 20.1719 33.6357V29.7406H24.0669ZM24.0669 27.7931C21.9128 27.7931 20.1719 26.0522 20.1719 23.8981C20.1719 21.744 21.9128 20.0031 24.0669 20.0031H33.834C35.9881 20.0031 37.729 21.744 37.729 23.8981C37.729 26.0522 35.9881 27.7931 33.834 27.7931H24.0669Z" fill="#59667D"/>
</svg>