<svg xmlns="http://www.w3.org/2000/svg" width="144" height="42" viewBox="0 0 144 42" fill="none">
  <g clip-path="url(#clip0_48_372)">
    <path d="M23.8759 -0.0595703C12.4524 -0.0595703 3.19141 9.31953 3.19141 20.889C3.19141 32.459 12.4524 41.8373 23.8759 41.8373C35.3006 41.8373 44.5606 32.459 44.5606 20.889C44.5606 9.32028 35.3006 -0.0585697 23.8756 -0.0585697L23.8759 -0.0595703ZM33.3616 30.1543C33.2734 30.3008 33.1574 30.4282 33.0205 30.5292C32.8835 30.6303 32.7282 30.703 32.5635 30.7432C32.3988 30.7834 32.2279 30.7903 32.0605 30.7635C31.8931 30.7367 31.7326 30.6767 31.5882 30.587C26.7317 27.5827 20.6179 26.9022 13.4179 28.5683C13.0845 28.6451 12.7347 28.5846 12.4452 28.4003C12.1558 28.2159 11.9505 27.9228 11.8744 27.5852C11.8365 27.418 11.8316 27.2449 11.8598 27.0758C11.8881 26.9067 11.949 26.7449 12.039 26.5997C12.1291 26.4545 12.2466 26.3287 12.3847 26.2295C12.5229 26.1303 12.679 26.0597 12.8441 26.0217C20.7234 24.1986 27.482 24.9835 32.9343 28.3581C33.5419 28.7359 33.7346 29.5389 33.3616 30.1543ZM35.8934 24.4502C35.4265 25.2187 34.4336 25.4613 33.6753 24.9885C28.1154 21.5274 19.6401 20.525 13.0637 22.5468C12.2108 22.8077 11.31 22.3209 11.0512 21.4586C10.9277 21.044 10.9715 20.5968 11.1731 20.2149C11.3747 19.8331 11.7176 19.5478 12.1266 19.4216C19.6386 17.1131 28.9774 18.2313 35.3623 22.2051C36.1206 22.6779 36.3602 23.6835 35.8934 24.4505V24.4502ZM36.1107 18.5105C29.4442 14.5003 18.4453 14.1315 12.0804 16.088C11.0583 16.4019 9.97746 15.8176 9.66773 14.7824C9.51879 14.2851 9.57097 13.7482 9.8128 13.2899C10.0546 12.8315 10.4663 12.4892 10.9573 12.3382C18.2638 10.0918 30.41 10.5258 38.0852 15.1404C38.304 15.2715 38.495 15.4449 38.6475 15.6509C38.7999 15.8569 38.9108 16.0913 38.9736 16.3407C39.0365 16.5901 39.0502 16.8496 39.0139 17.1043C38.9775 17.3591 38.892 17.6041 38.762 17.8253C38.2186 18.7564 37.0281 19.0634 36.1117 18.5105H36.1107ZM59.467 19.279C55.8954 18.4164 55.2606 17.8111 55.2606 16.539C55.2606 15.3373 56.377 14.5285 58.0393 14.5285C59.6497 14.5285 61.2454 15.1427 62.92 16.4069C62.9694 16.4452 63.0336 16.4605 63.0954 16.4505C63.1264 16.446 63.1563 16.4351 63.183 16.4185C63.2098 16.4019 63.2329 16.3799 63.251 16.3539L64.9948 13.8644C65.0292 13.815 65.0438 13.7542 65.0355 13.6943C65.0273 13.6345 64.9968 13.5801 64.9504 13.5422C62.9571 11.9229 60.7143 11.1357 58.0912 11.1357C54.2355 11.1357 51.5408 13.4794 51.5408 16.8327C51.5408 20.4287 53.865 21.702 57.8812 22.6849C61.2972 23.4821 61.8752 24.15 61.8752 25.3438C61.8752 26.6671 60.7094 27.4901 58.8322 27.4901C56.7475 27.4901 55.0457 26.7772 53.1438 25.1111C53.0964 25.0705 53.0354 25.0499 52.9734 25.0536C52.9091 25.0586 52.8523 25.0886 52.8128 25.1361L50.8566 27.4926C50.7751 27.5927 50.7849 27.7378 50.8788 27.8228C53.0919 29.8241 55.8139 30.8797 58.7531 30.8797C62.9077 30.8797 65.5925 28.5808 65.5925 25.0211C65.6 22.0174 63.824 20.3539 59.4744 19.2822L59.467 19.279ZM74.9933 15.7118C73.1927 15.7118 71.7157 16.4302 70.4955 17.9024V16.2453C70.4957 16.1827 70.4714 16.1225 70.4279 16.078C70.3844 16.0335 70.3252 16.0083 70.2633 16.0079H67.0647C66.9362 16.0079 66.8325 16.1145 66.8325 16.2453V34.6571C66.8325 34.7872 66.9362 34.8947 67.0647 34.8947H70.2633C70.3917 34.8947 70.4955 34.7872 70.4955 34.6571V28.846C71.7157 30.2293 73.1927 30.9072 74.9933 30.9072C78.3402 30.9072 81.729 28.2981 81.729 23.3102C81.7339 18.3214 78.3451 15.7115 74.9958 15.7115L74.9933 15.7118ZM78.0092 23.3102C78.0092 25.8491 76.4655 27.6227 74.2523 27.6227C72.0664 27.6227 70.4164 25.769 70.4164 23.3102C70.4164 20.8512 72.0664 18.9981 74.2523 18.9981C76.4284 18.9978 78.0092 20.8109 78.0092 23.31V23.3102ZM90.411 15.7118C86.1009 15.7118 82.7244 19.0729 82.7244 23.3645C82.7244 27.6102 86.0787 30.9348 90.3592 30.9348C94.6841 30.9348 98.0705 27.5852 98.0705 23.3102C98.0705 19.0498 94.7063 15.7123 90.411 15.7123V15.7118ZM90.411 27.6477C88.1189 27.6477 86.3899 25.7815 86.3899 23.309C86.3899 20.8252 88.0596 19.0228 90.3592 19.0228C92.6661 19.0228 94.405 20.8882 94.405 23.3633C94.405 25.8466 92.7254 27.6477 90.411 27.6477ZM107.274 16.0079H103.754V12.3642C103.754 12.3332 103.748 12.3024 103.737 12.2737C103.725 12.245 103.708 12.2189 103.686 12.1969C103.665 12.1749 103.639 12.1574 103.611 12.1454C103.583 12.1334 103.552 12.1272 103.522 12.127H100.323C100.195 12.127 100.088 12.2336 100.088 12.3642V16.0079H98.5521C98.4237 16.0079 98.3199 16.1145 98.3199 16.2453V19.0288C98.3199 19.1594 98.4237 19.2662 98.5521 19.2662H100.088V26.4695C100.088 29.3788 101.519 30.8547 104.342 30.8547C105.488 30.8547 106.439 30.6146 107.335 30.0992C107.41 30.0592 107.454 29.9792 107.454 29.8941V27.2425C107.454 27.1624 107.412 27.0849 107.343 27.0423C107.309 27.0205 107.27 27.0081 107.231 27.0064C107.191 27.0046 107.151 27.0136 107.116 27.0323C106.501 27.345 105.905 27.4901 105.238 27.4901C104.213 27.4901 103.754 27.0173 103.754 25.9617V19.2675H107.274C107.402 19.2675 107.506 19.1609 107.506 19.0301V16.2468C107.507 16.2158 107.502 16.1848 107.491 16.1559C107.479 16.1269 107.463 16.1005 107.441 16.0783C107.42 16.0561 107.394 16.0386 107.366 16.0268C107.337 16.0149 107.307 16.009 107.276 16.0094L107.274 16.0079ZM119.535 16.0222V15.5747C119.535 14.2581 120.034 13.671 121.15 13.671C121.817 13.671 122.353 13.8051 122.953 14.0077C123.027 14.0312 123.104 14.0195 123.163 13.9747C123.193 13.9527 123.218 13.9237 123.234 13.8902C123.251 13.8567 123.26 13.8196 123.259 13.7821V11.0529C123.26 11.0019 123.244 10.9521 123.214 10.9111C123.184 10.87 123.142 10.84 123.094 10.8255C122.462 10.6346 121.651 10.4387 120.436 10.4387C117.485 10.4387 115.921 12.1233 115.921 15.3085V15.9939H114.385C114.256 15.9939 114.15 16.1005 114.15 16.2311V19.0288C114.15 19.1594 114.256 19.2662 114.385 19.2662H115.921V30.3744C115.921 30.507 116.027 30.6121 116.156 30.6121H119.352C119.483 30.6121 119.587 30.507 119.587 30.3744V19.267H122.573L127.147 30.3744C126.629 31.5401 126.117 31.7728 125.421 31.7728C124.858 31.7728 124.262 31.6027 123.657 31.265C123.6 31.2356 123.534 31.2294 123.472 31.2474C123.41 31.27 123.358 31.315 123.334 31.375L122.249 33.784C122.197 33.8991 122.242 34.0317 122.351 34.0917C123.482 34.7121 124.502 34.9773 125.764 34.9773C128.125 34.9773 129.432 33.8616 130.581 30.8647L136.128 16.3464C136.143 16.3105 136.148 16.2715 136.144 16.233C136.139 16.1945 136.125 16.1577 136.103 16.126C136.083 16.0943 136.054 16.0683 136.021 16.0503C135.988 16.0323 135.951 16.0229 135.913 16.023H132.584C132.482 16.023 132.393 16.0872 132.361 16.1821L128.95 26.0467L125.216 16.1756C125.199 16.1308 125.169 16.0923 125.13 16.065C125.092 16.0378 125.046 16.0231 124.998 16.023H119.535V16.0222ZM112.426 16.0079H109.227C109.099 16.0079 108.993 16.1145 108.993 16.2453V30.3744C108.993 30.507 109.099 30.6121 109.227 30.6121H112.426C112.555 30.6121 112.661 30.507 112.661 30.3744V16.2463C112.661 16.2151 112.655 16.1842 112.643 16.1554C112.631 16.1265 112.614 16.1003 112.592 16.0782C112.57 16.0562 112.544 16.0387 112.516 16.0268C112.487 16.0149 112.457 16.0088 112.426 16.0089V16.0079ZM110.845 9.57419C109.578 9.57419 108.551 10.6128 108.551 11.8959C108.551 12.2011 108.61 12.5032 108.725 12.7852C108.841 13.0671 109.01 13.3233 109.223 13.5391C109.436 13.7549 109.689 13.926 109.967 14.0428C110.246 14.1595 110.544 14.2196 110.845 14.2196C112.112 14.2196 113.137 13.1797 113.137 11.8959C113.137 10.6131 112.11 9.57419 110.845 9.57419ZM138.86 20.551C137.595 20.551 136.61 19.5216 136.61 18.2716C136.61 17.0216 137.608 15.9804 138.872 15.9804C140.137 15.9804 141.122 17.0096 141.122 18.2586C141.122 19.5086 140.125 20.551 138.86 20.551ZM138.872 16.2071C137.719 16.2071 136.847 17.1351 136.847 18.2716C136.847 19.4076 137.714 20.3231 138.86 20.3231C140.013 20.3231 140.885 19.3958 140.885 18.2586C140.885 17.1226 140.018 16.2071 138.872 16.2071ZM139.371 18.493L140.008 19.3956H139.47L138.897 18.5675H138.405V19.3956H137.956V17.0031H139.008C139.559 17.0031 139.92 17.2875 139.92 17.7663C139.922 18.1585 139.697 18.3982 139.374 18.493H139.371ZM138.991 17.4136H138.405V18.1703H138.991C139.282 18.1703 139.458 18.0255 139.458 17.7916C139.458 17.5454 139.282 17.4136 138.991 17.4136Z" fill="#59667D"/>
  </g>
  <defs>
    <clipPath id="clip0_48_372">
      <rect width="143" height="42" fill="white" transform="translate(0.5)"/>
    </clipPath>
  </defs>
</svg>