<svg xmlns="http://www.w3.org/2000/svg" width="140" height="32" viewBox="0 0 140 32" fill="none">
  <path d="M15.4525 4.65753V0H0.767578V32H15.4525V27.3425C12.4443 27.3425 9.55925 26.1474 7.43217 24.0203C5.30504 21.8932 4.11004 19.0082 4.11004 16C4.11004 12.9918 5.30504 10.1067 7.43217 7.97967C9.55925 5.85255 12.4443 4.65753 15.4525 4.65753Z" fill="#59667D"/>
  <path d="M15.4502 4.65759V27.3425C18.4584 27.3425 21.3435 26.1475 23.4706 24.0203C25.5977 21.8932 26.7927 19.0083 26.7927 16.0001C26.7927 12.9918 25.5977 10.1068 23.4706 7.97973C21.3435 5.85261 18.4584 4.65759 15.4502 4.65759Z" fill="#59667D"/>
  <path d="M136.821 11.3308C138.153 11.3308 139.232 10.2514 139.232 8.91987C139.232 7.58836 138.153 6.50891 136.821 6.50891C135.49 6.50891 134.41 7.58836 134.41 8.91987C134.41 10.2514 135.49 11.3308 136.821 11.3308Z" fill="#59667D"/>
  <path d="M42.0006 20.8626L46.4056 6.06808H50.695L44.1838 24.7667H41.3585L42.0006 20.8626ZM37.9424 6.06808L42.3345 20.8626L43.0023 24.7667H40.1513L33.6787 6.06808H37.9424Z" fill="#59667D"/>
  <path d="M59.1196 21.6331V15.4431C59.1196 14.9979 59.0469 14.6169 58.9013 14.3001C58.7558 13.9748 58.5289 13.7222 58.2207 13.5424C57.921 13.3626 57.5314 13.2727 57.052 13.2727C56.641 13.2727 56.2857 13.3455 55.9861 13.491C55.6864 13.628 55.4552 13.8292 55.2926 14.0946C55.1299 14.3515 55.0486 14.6554 55.0486 15.0064H51.3499C51.3499 14.4157 51.4869 13.8549 51.7609 13.3241C52.0349 12.7933 52.433 12.3266 52.9552 11.9242C53.4775 11.5133 54.0982 11.1922 54.8174 10.9611C55.5451 10.7299 56.3585 10.6143 57.2575 10.6143C58.3362 10.6143 59.2951 10.7941 60.1342 11.1537C60.9732 11.5133 61.6325 12.0527 62.1119 12.7718C62.5999 13.491 62.8439 14.39 62.8439 15.4688V21.4148C62.8439 22.1768 62.891 22.8018 62.9852 23.2898C63.0794 23.7693 63.2164 24.1888 63.3962 24.5484V24.7667H59.659C59.4792 24.39 59.3422 23.9191 59.2481 23.354C59.1624 22.7804 59.1196 22.2068 59.1196 21.6331ZM59.6076 16.3035L59.6333 18.3968H57.5657C57.0777 18.3968 56.6539 18.4525 56.2943 18.5638C55.9347 18.6751 55.6393 18.8335 55.4082 19.039C55.177 19.2359 55.0058 19.4671 54.8945 19.7325C54.7917 19.9979 54.7404 20.289 54.7404 20.6057C54.7404 20.9225 54.8131 21.2093 54.9587 21.4662C55.1042 21.7145 55.314 21.9114 55.588 22.0569C55.8619 22.1939 56.183 22.2624 56.5511 22.2624C57.1076 22.2624 57.5914 22.1511 58.0023 21.9285C58.4133 21.7059 58.7301 21.4319 58.9527 21.1066C59.1838 20.7813 59.3037 20.473 59.3123 20.1819L60.2883 21.7487C60.1513 22.0998 59.963 22.4636 59.7232 22.8403C59.4921 23.217 59.1967 23.5724 58.8371 23.9063C58.4775 24.2316 58.0451 24.5013 57.54 24.7153C57.0349 24.9208 56.4356 25.0236 55.7421 25.0236C54.8602 25.0236 54.0597 24.848 53.3405 24.497C52.6299 24.1374 52.0648 23.6451 51.6453 23.0201C51.2344 22.3866 51.0289 21.6674 51.0289 20.8626C51.0289 20.1349 51.1659 19.4885 51.4398 18.9234C51.7138 18.3583 52.1162 17.8831 52.647 17.4979C53.1864 17.104 53.8585 16.8087 54.6633 16.6117C55.4681 16.4063 56.4013 16.3035 57.463 16.3035H59.6076Z" fill="#59667D"/>
  <path d="M69.3165 13.8378V24.7667H65.6179V10.8712H69.0854L69.3165 13.8378ZM68.7772 17.3309H67.7755C67.7755 16.3035 67.9082 15.3789 68.1736 14.557C68.439 13.7265 68.8114 13.0201 69.2909 12.4379C69.7703 11.8472 70.3397 11.3977 70.9989 11.0895C71.6667 10.7727 72.4116 10.6143 73.2335 10.6143C73.8842 10.6143 74.4792 10.7085 75.0186 10.8968C75.558 11.0852 76.0203 11.3849 76.4056 11.7958C76.7994 12.2068 77.0991 12.7504 77.3046 13.4268C77.5186 14.1032 77.6256 14.9294 77.6256 15.9054V24.7667H73.9013V15.8926C73.9013 15.2761 73.8157 14.7967 73.6445 14.4542C73.4732 14.1117 73.2207 13.872 72.8867 13.735C72.5614 13.5895 72.159 13.5167 71.6796 13.5167C71.183 13.5167 70.7506 13.6152 70.3825 13.8121C70.0229 14.009 69.7232 14.283 69.4835 14.634C69.2523 14.9765 69.0768 15.3789 68.957 15.8412C68.8371 16.3035 68.7772 16.8001 68.7772 17.3309Z" fill="#59667D"/>
  <path d="M85.1513 24.7667H81.427V9.63829C81.427 8.58521 81.6325 7.69908 82.0434 6.9799C82.4629 6.25216 83.0494 5.70421 83.8028 5.33606C84.5648 4.95935 85.4681 4.771 86.5126 4.771C86.8551 4.771 87.1847 4.79668 87.5015 4.84805C87.8183 4.89086 88.1265 4.94651 88.4261 5.015L88.3876 7.80182C88.2249 7.75901 88.0537 7.72904 87.8739 7.71192C87.6941 7.6948 87.4843 7.68623 87.2446 7.68623C86.7994 7.68623 86.4184 7.76329 86.1016 7.9174C85.7934 8.06295 85.558 8.28127 85.3953 8.57236C85.2326 8.86346 85.1513 9.21877 85.1513 9.63829V24.7667ZM87.9253 10.8712V13.491H79.3594V10.8712H87.9253Z" fill="#59667D"/>
  <path d="M97.3645 21.6331V15.4431C97.3645 14.9979 97.2917 14.6169 97.1462 14.3001C97.0006 13.9748 96.7737 13.7222 96.4655 13.5424C96.1659 13.3626 95.7763 13.2727 95.2968 13.2727C94.8859 13.2727 94.5306 13.3455 94.2309 13.491C93.9313 13.628 93.7001 13.8292 93.5374 14.0946C93.3748 14.3515 93.2934 14.6554 93.2934 15.0064H89.5948C89.5948 14.4157 89.7318 13.8549 90.0058 13.3241C90.2797 12.7933 90.6778 12.3266 91.2001 11.9242C91.7224 11.5133 92.3431 11.1922 93.0623 10.9611C93.79 10.7299 94.6034 10.6143 95.5023 10.6143C96.5811 10.6143 97.54 10.7941 98.379 11.1537C99.2181 11.5133 99.8773 12.0527 100.357 12.7718C100.845 13.491 101.089 14.39 101.089 15.4688V21.4148C101.089 22.1768 101.136 22.8018 101.23 23.2898C101.324 23.7693 101.461 24.1888 101.641 24.5484V24.7667H97.9039C97.7241 24.39 97.5871 23.9191 97.4929 23.354C97.4073 22.7804 97.3645 22.2068 97.3645 21.6331ZM97.8525 16.3035L97.8782 18.3968H95.8105C95.3225 18.3968 94.8987 18.4525 94.5391 18.5638C94.1796 18.6751 93.8842 18.8335 93.653 19.039C93.4218 19.2359 93.2506 19.4671 93.1393 19.7325C93.0366 19.9979 92.9852 20.289 92.9852 20.6057C92.9852 20.9225 93.058 21.2093 93.2035 21.4662C93.3491 21.7145 93.5588 21.9114 93.8328 22.0569C94.1068 22.1939 94.4278 22.2624 94.796 22.2624C95.3525 22.2624 95.8362 22.1511 96.2472 21.9285C96.6581 21.7059 96.9749 21.4319 97.1975 21.1066C97.4287 20.7813 97.5486 20.473 97.5571 20.1819L98.5331 21.7487C98.3962 22.0998 98.2078 22.4636 97.9681 22.8403C97.7369 23.217 97.4415 23.5724 97.082 23.9063C96.7224 24.2316 96.29 24.5013 95.7849 24.7153C95.2797 24.9208 94.6804 25.0236 93.9869 25.0236C93.1051 25.0236 92.3046 24.848 91.5854 24.497C90.8748 24.1374 90.3097 23.6451 89.8902 23.0201C89.4792 22.3866 89.2737 21.6674 89.2737 20.8626C89.2737 20.1349 89.4107 19.4885 89.6847 18.9234C89.9587 18.3583 90.3611 17.8831 90.8919 17.4979C91.4313 17.104 92.1034 16.8087 92.9081 16.6117C93.7129 16.4063 94.6462 16.3035 95.7078 16.3035H97.8525Z" fill="#59667D"/>
  <path d="M103.94 5.04069H107.638V21.5818L107.266 24.7667H103.94V5.04069ZM116.436 17.6777V17.9474C116.436 18.9833 116.324 19.9337 116.102 20.7984C115.888 21.6631 115.554 22.4123 115.1 23.0458C114.646 23.6708 114.081 24.1588 113.405 24.5099C112.737 24.8523 111.949 25.0236 111.042 25.0236C110.194 25.0236 109.458 24.8523 108.833 24.5099C108.216 24.1674 107.698 23.6837 107.279 23.0587C106.859 22.4337 106.521 21.7016 106.264 20.8626C106.007 20.0236 105.815 19.1075 105.686 18.1143V17.5236C105.815 16.5304 106.007 15.6143 106.264 14.7753C106.521 13.9362 106.859 13.2042 107.279 12.5792C107.698 11.9542 108.216 11.4705 108.833 11.128C109.449 10.7855 110.177 10.6143 111.016 10.6143C111.932 10.6143 112.728 10.7898 113.405 11.1409C114.09 11.4833 114.655 11.9713 115.1 12.6049C115.554 13.2299 115.888 13.9748 116.102 14.8395C116.324 15.6956 116.436 16.6417 116.436 17.6777ZM112.737 17.9474V17.6777C112.737 17.1126 112.694 16.5818 112.608 16.0852C112.531 15.5801 112.394 15.1391 112.198 14.7624C112.001 14.3772 111.731 14.0732 111.388 13.8506C111.055 13.628 110.622 13.5167 110.091 13.5167C109.586 13.5167 109.158 13.6023 108.807 13.7736C108.456 13.9448 108.165 14.1845 107.934 14.4927C107.711 14.801 107.544 15.1691 107.433 15.5972C107.322 16.0167 107.253 16.479 107.227 16.9842V18.6665C107.253 19.3429 107.364 19.9422 107.561 20.4645C107.767 20.9782 108.075 21.3849 108.486 21.6845C108.906 21.9756 109.449 22.1212 110.117 22.1212C110.639 22.1212 111.072 22.0184 111.414 21.8129C111.757 21.6075 112.022 21.3164 112.21 20.9397C112.407 20.5629 112.544 20.122 112.621 19.6169C112.698 19.1032 112.737 18.5467 112.737 17.9474Z" fill="#59667D"/>
  <path d="M126.234 21.6331V15.4431C126.234 14.9979 126.162 14.6169 126.016 14.3001C125.87 13.9748 125.644 13.7222 125.335 13.5424C125.036 13.3626 124.646 13.2727 124.167 13.2727C123.756 13.2727 123.4 13.3455 123.101 13.491C122.801 13.628 122.57 13.8292 122.407 14.0946C122.245 14.3515 122.163 14.6554 122.163 15.0064H118.465C118.465 14.4157 118.602 13.8549 118.876 13.3241C119.15 12.7933 119.548 12.3266 120.07 11.9242C120.592 11.5133 121.213 11.1922 121.932 10.9611C122.66 10.7299 123.473 10.6143 124.372 10.6143C125.451 10.6143 126.41 10.7941 127.249 11.1537C128.088 11.5133 128.747 12.0527 129.227 12.7718C129.715 13.491 129.959 14.39 129.959 15.4688V21.4148C129.959 22.1768 130.006 22.8018 130.1 23.2898C130.194 23.7693 130.331 24.1888 130.511 24.5484V24.7667H126.774C126.594 24.39 126.457 23.9191 126.363 23.354C126.277 22.7804 126.234 22.2068 126.234 21.6331ZM126.722 16.3035L126.748 18.3968H124.68C124.192 18.3968 123.769 18.4525 123.409 18.5638C123.049 18.6751 122.754 18.8335 122.523 19.039C122.292 19.2359 122.12 19.4671 122.009 19.7325C121.906 19.9979 121.855 20.289 121.855 20.6057C121.855 20.9225 121.928 21.2093 122.073 21.4662C122.219 21.7145 122.429 21.9114 122.703 22.0569C122.977 22.1939 123.298 22.2624 123.666 22.2624C124.222 22.2624 124.706 22.1511 125.117 21.9285C125.528 21.7059 125.845 21.4319 126.067 21.1066C126.299 20.7813 126.418 20.473 126.427 20.1819L127.403 21.7487C127.266 22.0998 127.078 22.4636 126.838 22.8403C126.607 23.217 126.311 23.5724 125.952 23.9063C125.592 24.2316 125.16 24.5013 124.655 24.7153C124.15 24.9208 123.55 25.0236 122.857 25.0236C121.975 25.0236 121.174 24.848 120.455 24.497C119.745 24.1374 119.18 23.6451 118.76 23.0201C118.349 22.3866 118.144 21.6674 118.144 20.8626C118.144 20.1349 118.281 19.4885 118.555 18.9234C118.829 18.3583 119.231 17.8831 119.762 17.4979C120.301 17.104 120.973 16.8087 121.778 16.6117C122.583 16.4063 123.516 16.3035 124.578 16.3035H126.722Z" fill="#59667D"/>
</svg>